<svg id="Capa_1" enable-background="new 0 0 512 512" height="512" viewBox="0 0 512 512" width="512" xmlns="http://www.w3.org/2000/svg"><g><g><path d="m502 256-40 246h-452l40-246h46l20-40h120l20 40z" fill="#ffda8f"/><path d="m236 216h-80v-160h300v200h-200z" fill="#eefaff"/><path d="m376 10v46h-220v160h-40l-20 40h-20c0-8.41 0-237.607 0-246z" fill="#ff7d95"/><path d="m176 336v126h160c0-27.265 0-102.427 0-126-13.891 0-123.793 0-160 0z" fill="#6d92ac"/><path d="m276 176h-80c0-22.09 17.91-40 40-40s40 17.91 40 40z" fill="#ff7d95"/><circle cx="236" cy="116" fill="#e9baa1" r="20"/><path d="m76 176v80h-26l-40 246v-326z" fill="#6d92ac"/></g><g><circle cx="416" cy="216" r="10"/><path d="m196 186h80c5.523 0 10-4.477 10-10 0-18.499-10.106-34.671-25.079-43.319 3.205-4.773 5.079-10.512 5.079-16.681 0-16.542-13.458-30-30-30s-30 13.458-30 30c0 6.169 1.874 11.908 5.079 16.681-14.973 8.648-25.079 24.82-25.079 43.319 0 5.523 4.477 10 10 10zm40-80c5.514 0 10 4.486 10 10s-4.486 10-10 10-10-4.486-10-10 4.486-10 10-10zm0 40c13.038 0 24.159 8.359 28.287 20h-56.573c4.127-11.641 15.248-20 28.286-20z"/><path d="m316 106h100c5.523 0 10-4.477 10-10s-4.477-10-10-10h-100c-5.523 0-10 4.477-10 10s4.477 10 10 10z"/><path d="m316 146h100c5.523 0 10-4.477 10-10s-4.477-10-10-10h-100c-5.523 0-10 4.477-10 10s4.477 10 10 10z"/><path d="m316 186h100c5.523 0 10-4.477 10-10s-4.477-10-10-10h-100c-5.523 0-10 4.477-10 10s4.477 10 10 10z"/><path d="m346 462v-126c0-5.523-4.477-10-10-10h-30v-30c0-5.523-4.477-10-10-10h-80c-5.523 0-10 4.477-10 10v30h-30c-5.523 0-10 4.477-10 10v126c0 5.523 4.477 10 10 10h160c5.523 0 10-4.477 10-10zm-120-156h60v20h-60zm100 146h-140v-59.82l65.528 32.764c2.811 1.405 6.123 1.41 8.944 0l65.528-32.764zm0-82.18-70 35-70-35v-23.82h140z"/><circle cx="256" cy="502" r="10"/><path d="m10 512h200.999c5.523 0 10-4.477 10-10s-4.477-10-10-10h-189.242l36.748-226h37.495c3.788 0 7.25-2.14 8.944-5.528l17.236-34.472h107.64l17.236 34.472c1.694 3.388 5.156 5.528 8.944 5.528h234.243l-36.748 226h-152.495c-5.523 0-10 4.477-10 10s4.477 10 10 10h161c4.903 0 9.083-3.555 9.871-8.395l40-246c.47-2.895-.353-5.85-2.253-8.084s-4.685-3.521-7.617-3.521h-36v-190c0-5.523-4.477-10-10-10h-70v-36c0-5.523-4.477-10-10-10h-300.001c-5.523 0-10 4.477-10 10v156h-56c-5.523 0-10 4.477-10 10v326c0 5.622 4.597 10 10 10zm436-446v180h-183.82l-10-20h123.82c5.523 0 10-4.477 10-10s-4.477-10-10-10c-11.659 0-197.722 0-210 0v-140zm-360-46h280v26h-210c-5.523 0-10 4.477-10 10v150h-30c-3.788 0-7.25 2.14-8.944 5.528l-17.236 34.472h-3.82zm-66 166h46v60h-16c-4.903 0-9.083 3.555-9.871 8.395l-20.129 123.796z"/></g></g></svg>